<?xml version="1.0" encoding="utf-8"?>
<!-- Generator: Adobe Illustrator 24.0.0, SVG Export Plug-In . SVG Version: 6.00 Build 0)  -->
<svg version="1.1" id="Capa_1" xmlns="http://www.w3.org/2000/svg" xmlns:xlink="http://www.w3.org/1999/xlink" x="0px" y="0px"
	 viewBox="0 0 20 10" style="enable-background:new 0 0 20 10;" xml:space="preserve">
<path d="M3.4,5.7H0.7C0.3,5.7,0,6,0,6.4v2.7c0,0.4,0.3,0.7,0.7,0.7h2.7C3.7,9.8,4,9.4,4,9.1V6.4C4,6,3.7,5.7,3.4,5.7z M3.6,8.9
	c0,0.2-0.2,0.4-0.4,0.4H0.8c-0.2,0-0.4-0.2-0.4-0.4V6.5c0-0.2,0.2-0.4,0.4-0.4h2.4c0.2,0,0.4,0.2,0.4,0.4L3.6,8.9L3.6,8.9z M8.8,5.7
	H6.1C5.8,5.7,5.5,6,5.5,6.4v2.7c0,0.4,0.3,0.7,0.7,0.7h2.7c0.4,0,0.7-0.3,0.7-0.7V6.4C9.5,6,9.2,5.7,8.8,5.7z M9.1,8.9
	c0,0.2-0.2,0.4-0.4,0.4H6.2C6,9.3,5.8,9.1,5.8,8.9V6.5c0-0.2,0.2-0.4,0.4-0.4h2.4c0.2,0,0.4,0.2,0.4,0.4V8.9z M3.4,0.3H0.7
	C0.3,0.3,0,0.6,0,0.9v2.7C0,4,0.3,4.3,0.7,4.3h2.7C3.7,4.3,4,4,4,3.6V0.9C4,0.6,3.7,0.3,3.4,0.3z M3.6,3.5c0,0.2-0.2,0.4-0.4,0.4
	H0.8c-0.2,0-0.4-0.2-0.4-0.4V1.1c0-0.2,0.2-0.4,0.4-0.4h2.4c0.2,0,0.4,0.2,0.4,0.4L3.6,3.5L3.6,3.5z M8.8,0.3H6.1
	c-0.4,0-0.7,0.3-0.7,0.7v2.7c0,0.4,0.3,0.7,0.7,0.7h2.7c0.4,0,0.7-0.3,0.7-0.7V0.9C9.5,0.6,9.2,0.3,8.8,0.3z M9.1,3.5
	c0,0.2-0.2,0.4-0.4,0.4H6.2C6,3.9,5.8,3.8,5.8,3.5V1.1c0-0.2,0.2-0.4,0.4-0.4h2.4c0.2,0,0.4,0.2,0.4,0.4V3.5z"/>
</svg>
