<?xml version="1.0" encoding="utf-8"?>
<!-- Generator: Adobe Illustrator 24.0.0, SVG Export Plug-In . SVG Version: 6.00 Build 0)  -->
<svg version="1.1" id="Capa_1" xmlns="http://www.w3.org/2000/svg" xmlns:xlink="http://www.w3.org/1999/xlink" x="0px" y="0px"
	 viewBox="0 0 20 10" style="enable-background:new 0 0 20 10;" xml:space="preserve">
<path d="M9.3,1.1H0.9C0.4,1.1,0,1.5,0,2v6c0,0.5,0.4,0.9,0.9,0.9h8.4c0.5,0,0.9-0.4,0.9-0.9V2C10.2,1.5,9.8,1.1,9.3,1.1z M9.8,8
	c0,0.3-0.2,0.5-0.5,0.5H0.9C0.7,8.5,0.5,8.3,0.5,8V2c0-0.3,0.2-0.5,0.5-0.5h8.4c0.3,0,0.5,0.2,0.5,0.5V8z M8.6,2.3L5.1,4.5L1.6,2.3
	c-0.1-0.1-0.3,0-0.3,0.1c-0.1,0.1,0,0.3,0.1,0.3l3.5,2.3c0.1,0,0.2,0,0.2,0c0.1,0,0.2,0,0.2,0l3.5-2.3C9,2.6,9,2.4,8.9,2.3
	C8.8,2.2,8.7,2.2,8.6,2.3z"/>
</svg>
