<?xml version="1.0" encoding="utf-8"?>
<!-- Generator: Adobe Illustrator 24.0.0, SVG Export Plug-In . SVG Version: 6.00 Build 0)  -->
<svg version="1.1" id="Capa_1" xmlns="http://www.w3.org/2000/svg" xmlns:xlink="http://www.w3.org/1999/xlink" x="0px" y="0px"
	 viewBox="0 0 20 10" style="enable-background:new 0 0 20 10;" xml:space="preserve">
<path d="M17.5,4.6V3.5c0,0,0-0.1,0.1-0.1h0.7c0.4,0,0.7,0.3,0.7,0.7v0.5h0.7c0,0,0.1,0,0.1,0.1v0.2c0,0.1,0,0.1-0.1,0.1h-0.7v3.5
	c0,0.3,0.1,0.4,0.2,0.4c0.1,0,0.3-0.2,0.4-0.3l0,0l0,0c0-0.1,0.1-0.1,0.1-0.1c0,0,0,0,0,0l0.1,0.1c0.1,0.1,0.1,0.2,0,0.3
	c-0.3,0.3-0.7,0.5-1.2,0.5c-0.7,0-1.1-0.6-1.1-1.2V4.9h-0.7c0,0-0.1,0-0.1-0.1V4.7c0,0,0-0.1,0.1-0.1L17.5,4.6L17.5,4.6z M15.5,4.7
	c2,0,2.4,2.5-0.8,2.4c0,0.8,0.1,2,1.1,2c0.3,0,0.7-0.1,1.2-0.4c0,0,0.1,0,0.1,0.1v0.2c0,0,0,0,0,0c-0.6,0.3-1.1,0.4-1.6,0.4
	c-1.3,0-2.2-1-2.2-2.3c0-1.1,0.7-2.2,2-2.3C15.3,4.7,15.4,4.7,15.5,4.7z M14.8,6.8c0.1,0,0.1,0,0.2-0.1c0.7-0.3,1-1.2,0.8-1.6
	c-0.1-0.2-0.2-0.2-0.3-0.2c-0.1,0-0.2,0.1-0.3,0.1c-0.3,0.4-0.6,1.3-0.5,1.6C14.7,6.7,14.7,6.8,14.8,6.8z M11.6,4.7
	c2,0,2.4,2.5-0.8,2.4c0,0.8,0.1,2,1.1,2c0.3,0,0.7-0.1,1.2-0.4c0.1,0,0.1,0,0.1,0v0.2c0,0,0,0,0,0c-0.6,0.3-1.1,0.4-1.6,0.4
	c-1.3,0-2.2-1-2.2-2.3c0-1.1,0.7-2.2,2-2.3C11.5,4.7,11.6,4.7,11.6,4.7z M11,6.8c0.1,0,0.1,0,0.2-0.1c0.7-0.3,1-1.2,0.8-1.6
	c-0.1-0.2-0.2-0.2-0.3-0.2c-0.1,0-0.2,0.1-0.3,0.1c-0.3,0.4-0.6,1.3-0.5,1.6C10.8,6.7,10.9,6.8,11,6.8z M3.8,4.6h0.9
	c0.3,0,0.5,0.2,0.6,0.5L6,7.2c0,0,0,0,0,0h0h0c0,0,0,0,0,0L6.5,6v0L6,4.7c0,0,0,0,0-0.1c0,0,0,0,0.1,0h0.9c0.3,0,0.6,0.2,0.6,0.5
	l0.6,2.1c0,0,0,0,0,0c0,0,0,0,0,0l0.8-2.5c0,0,0-0.1,0.1-0.1h0.2c0,0,0,0,0.1,0c0,0,0,0.1,0,0.1C9.2,5.2,8,8.9,7.8,9.3
	c0,0,0,0.1,0,0.1C7.6,9.3,7.4,9.2,7.3,9L6.6,6.6c0,0,0,0,0,0l0,0c0,0,0,0,0,0L6,8.4C5.7,9.2,5.7,9.2,5.7,9.3c0,0,0,0.1-0.1,0.1h0
	C5.4,9.3,5.2,9.2,5.2,9L3.8,4.6C3.7,4.7,3.7,4.6,3.8,4.6C3.8,4.6,3.8,4.6,3.8,4.6z M0.2,8.4C0.2,8.4,0.2,8.4,0.2,8.4
	c0.1-0.1,0.1-0.1,0.1,0C0.6,8.8,1,9,1.5,9c0.1,0,0.3,0,0.4-0.1c0.3-0.1,0.5-0.3,0.4-0.6c0-0.4-0.4-0.6-0.9-0.9
	C0.8,7.1,0.1,6.7,0.1,5.9c0-0.7,0.5-1,1-1.2c0.3-0.1,0.6-0.1,1-0.1c0.4,0,0.8,0.1,1.1,0.3C3.6,5.1,3.8,5.6,3.6,6h0
	C3.5,6.2,3.3,6.4,3.1,6.4c-0.1,0-0.2,0-0.3,0c-0.1,0-0.3-0.1-0.3-0.3C2.3,5.9,2.3,5.8,2.3,5.6c0.1-0.3,0.3-0.4,0.5-0.5l0,0
	c0,0,0,0,0,0C2.6,4.9,2.4,4.9,2.2,4.9C1.9,4.9,1.6,5,1.5,5.1C1.3,5.2,1.3,5.4,1.4,5.6c0.1,0.2,0.4,0.5,0.8,0.8
	c0.7,0.4,1.5,0.8,1.5,1.7c0,0.9-1,1.3-1.9,1.3C1,9.3,0.5,9.2,0.2,8.8c0,0,0,0,0-0.1V8.4z M11.6,1.9C11.6,1.9,11.7,1.8,11.6,1.9
	l0.4,0c0.1,0,0.2,0.1,0.2,0.2c0,0,0,0,0,0l0,0c0.1-0.1,0.3-0.2,0.5-0.2c0.2,0,0.4,0.1,0.6,0.3c0.1,0.1,0.3,0.3,0.3,0.7v1.3
	c0,0,0,0,0,0h-0.3C13.1,4.1,13,4,13,3.8V2.6C13,2.4,12.9,2,12.6,2c-0.1,0-0.3,0.2-0.3,0.5v1.6c0,0,0,0,0,0H12
	c-0.2,0-0.3-0.2-0.3-0.3V1.9z M11.5,3c0,0.6-0.3,1.2-1.1,1.2C9.6,4.2,9.3,3.6,9.3,3c0-0.5,0.3-1.1,1.1-1.1C11.1,1.9,11.5,2.4,11.5,3
	z M10.7,3c0-0.2,0-1-0.3-1c-0.2,0-0.3,0.5-0.3,1s0.1,1,0.3,1C10.6,4,10.7,3.5,10.7,3z M9.2,1.4C9,1.1,8.6,0.7,7.8,0.7
	c-1.4,0-2.2,1-2.2,2.4c0,0.5,0.1,0.9,0.3,1.2h1.1c0.1,0,0.3,0,0.4,0.1C7.2,4.2,7.2,4.1,7.1,3.9c-0.3-1,0-2.4,0.5-2.8
	C7.8,1,7.9,1,8,1C8.1,1,8.3,1,8.5,1.2c0,0,0,0,0,0l0,0l0,0C8.2,1.3,8,1.5,7.9,1.8c0,0.3,0.1,0.6,0.4,0.7c0.1,0,0.2,0,0.2,0
	c0.3,0,0.5-0.1,0.6-0.4C9.4,2,9.4,1.7,9.2,1.4z"/>
</svg>
