<?xml version="1.0" encoding="utf-8"?>
<!-- Generator: Adobe Illustrator 24.0.0, SVG Export Plug-In . SVG Version: 6.00 Build 0)  -->
<svg xmlns="http://www.w3.org/2000/svg" viewBox="0 0 20 20">
<g>
	<circle fill="#F36566" id="bg" class="st0" cx="10" cy="10" r="9.7"/>
	<path fill="#2A221D" id="iso" class="st1" d="M4.7,9.4h1.4c0.5,0,0.9,0.3,1.1,0.8l1.2,3.5c0,0,0,0,0,0h0h0c0,0,0,0,0,0l0.7-2v0L8.3,9.5
		c0,0,0-0.1,0-0.1c0,0,0.1,0,0.1,0h1.5c0.5,0,0.9,0.3,1.1,0.8l1,3.4c0,0,0,0,0,0c0,0,0,0,0,0l1.4-4.1c0,0,0-0.1,0.1-0.1h0.3
		c0,0,0.1,0,0.1,0c0,0,0,0.1,0,0.1c-0.3,0.9-2.3,6.9-2.5,7.5c0,0,0,0.1-0.1,0.1c-0.4,0-0.7-0.2-0.8-0.6l-1.1-3.9c0,0,0,0,0,0h0
		c0,0,0,0,0,0l-1,2.9c-0.5,1.4-0.5,1.4-0.5,1.5c0,0,0,0.1-0.1,0.1h0c-0.4,0-0.6-0.2-0.8-0.5l-2.4-7C4.6,9.5,4.6,9.5,4.7,9.4
		C4.6,9.4,4.6,9.4,4.7,9.4z M13.7,4.2c-0.3-0.6-1.1-1.2-2.4-1.2C9,2.9,7.6,4.7,7.6,6.8c0,0.7,0.2,1.4,0.5,2c0,0,0,0,0,0h1.8
		c0.2,0,0.4,0,0.6,0.1c-0.1-0.2-0.2-0.5-0.3-0.7c-0.4-1.7,0-4,0.9-4.6c0.2-0.1,0.3-0.2,0.5-0.2c0.2,0,0.5,0.1,0.8,0.3c0,0,0,0,0,0
		l0,0l0,0c-0.5,0.1-0.8,0.5-0.9,1s0.2,1,0.7,1.1C12.4,6,12.6,6,12.7,6c0.4,0,0.8-0.2,1-0.6C13.9,5,13.9,4.6,13.7,4.2z"/>
</g>
</svg>
